<svg xmlns="http://www.w3.org/2000/svg" viewBox="0 0 2834.65 2834.65">
  <style>
    .cls-1 {
      fill: #22a5de;
    }

    .cls-4 {
      fill: #22a5de;
    }

    .cls-2 {
      fill: #1b2b54;
    }

    .cls-3 {
      fill: #fff;
    }

    @media (prefers-color-scheme: dark) {
      .cls-1, .cls-2, .cls-3 {
        fill: white;
      }

      .cls-4 {
        fill: transparent;
      }
    }
  </style>
  <path class="cls-3" d="M1417.32,1728.62c-44.55,0-87.79-8.73-128.52-25.96-39.32-16.63-74.62-40.43-104.93-70.74-30.31-30.31-54.11-65.61-70.74-104.93-17.23-40.73-25.96-83.97-25.96-128.52s8.73-87.79,25.96-128.52c16.63-39.32,40.43-74.62,70.74-104.93,30.31-30.31,65.61-54.11,104.93-70.74,40.73-17.23,83.97-25.96,128.52-25.96s87.79,8.73,128.52,25.96c39.32,16.63,74.62,40.43,104.93,70.74,30.31,30.31,54.11,65.61,70.74,104.93,17.23,40.73,25.96,83.97,25.96,128.52s-8.73,87.79-25.96,128.52c-16.63,39.32-40.43,74.62-70.74,104.93-30.31,30.31-65.61,54.11-104.93,70.74-40.73,17.23-83.97,25.96-128.52,25.96Z"/>
  <path class="cls-4" d="M1417.32,1106.81c161.08,0,291.65,130.58,291.65,291.65s-130.58,291.65-291.65,291.65-291.65-130.58-291.65-291.65,130.58-291.65,291.65-291.65M1417.32,1029.81c-49.73,0-98.02,9.76-143.52,29-43.91,18.57-83.33,45.14-117.16,78.97-33.83,33.83-60.4,73.25-78.97,117.16-19.24,45.5-29,93.79-29,143.52s9.76,98.02,29,143.52c18.57,43.91,45.14,83.33,78.97,117.16,33.83,33.83,73.25,60.4,117.16,78.97,45.5,19.24,93.79,29,143.52,29s98.02-9.76,143.52-29c43.91-18.57,83.33-45.14,117.16-78.97,33.83-33.83,60.4-73.25,78.97-117.16,19.24-45.5,29-93.79,29-143.52s-9.76-98.02-29-143.52c-18.57-43.91-45.14-83.33-78.97-117.16-33.83-33.83-73.25-60.4-117.16-78.97-45.5-19.24-93.79-29-143.52-29h0Z"/>  <path class="cls-2" d="M2036.18,1008.54l-590.61-340.99c-17.48-10.09-39.02-10.09-56.5,0l-590.6,340.99c-17.48,10.09-28.25,28.75-28.25,48.93v681.97c0,20.19,10.77,38.84,28.25,48.93l590.61,340.99c17.48,10.09,39.02,10.09,56.5,0l590.6-340.99c17.48-10.09,28.25-28.75,28.25-48.93v-681.97c0-20.19-10.77-38.84-28.25-48.93ZM1417.32,1766.89c-203.48,0-368.43-164.95-368.43-368.43s164.95-368.43,368.43-368.43,368.43,164.95,368.43,368.43-164.95,368.43-368.43,368.43Z"/>
  <path class="cls-1" d="M1302.77,26.36L285.7,613.57c-25.11,14.5-25.11,50.74,0,65.24l406.84,234.89c11.65,6.73,26.01,6.73,37.67,0l610.23-352.32c11.65-6.73,18.83-19.16,18.83-32.62V58.98c0-29-31.39-47.12-56.5-32.62Z"/>
  <path class="cls-2" d="M2587.53,635.85L1531.88,26.37c-25.11-14.5-56.5,3.62-56.5,32.62v458.9c0,20.19,10.77,38.84,28.25,48.93l648.82,374.6c17.48,10.09,28.25,28.75,28.25,48.93v816.23c0,20.19-10.77,38.84-28.25,48.93l-706.87,408.11c-17.48,10.09-39.02,10.09-56.5,0l-706.87-408.11c-17.48-10.09-28.25-28.75-28.25-48.93v-748.48c0-20.19-10.77-38.84-28.25-48.93l-397.42-229.45c-25.11-14.5-56.5,3.62-56.5,32.62v1218.25c0,53.83,28.72,103.57,75.34,130.49l1094.88,632.12c46.62,26.91,104.05,26.91,150.67,0l1094.87-632.13c46.62-26.91,75.34-76.66,75.34-130.49V766.33c0-53.83-28.72-103.57-75.34-130.49Z"/>
</svg>
