<svg xmlns="http://www.w3.org/2000/svg" viewBox="0 0 11905.51 2834.65">
  <style>
    .cls-1 {
      fill: #22a5de;
    }

    .cls-2 {
      fill: #1b2b54;
    }

    .cls-3 {
      fill: #fff;
    }

    @media (prefers-color-scheme: dark) {
      .cls-1, .cls-2, .cls-3 {
        fill: white;
      }
    }
  </style>
  <path class="cls-3" d="M1664.05,1728.57c-44.55,0-87.79-8.73-128.52-25.96-39.32-16.63-74.62-40.43-104.93-70.74-30.31-30.31-54.11-65.61-70.74-104.93-17.23-40.73-25.96-83.97-25.96-128.52s8.73-87.79,25.96-128.52c16.63-39.32,40.43-74.62,70.74-104.93,30.31-30.31,65.61-54.11,104.93-70.74,40.73-17.23,83.97-25.96,128.52-25.96s87.79,8.73,128.52,25.96c39.32,16.63,74.62,40.43,104.93,70.74,30.31,30.31,54.11,65.61,70.74,104.93,17.23,40.73,25.96,83.97,25.96,128.52s-8.73,87.79-25.96,128.52c-16.63,39.32-40.43,74.62-70.74,104.93-30.31,30.31-65.61,54.11-104.93,70.74-40.73,17.23-83.97,25.96-128.52,25.96Z" />
  <path class="cls-1" d="M1664.05,1106.76c161.08,0,291.65,130.58,291.65,291.65s-130.58,291.65-291.65,291.65-291.65-130.58-291.65-291.65,130.58-291.65,291.65-291.65M1664.05,1029.76c-49.73,0-98.02,9.76-143.52,29-43.91,18.57-83.33,45.14-117.16,78.97-33.83,33.83-60.4,73.25-78.97,117.16-19.24,45.5-29,93.79-29,143.52s9.76,98.02,29,143.52c18.57,43.91,45.14,83.33,78.97,117.16,33.83,33.83,73.25,60.4,117.16,78.97,45.5,19.24,93.79,29,143.52,29s98.02-9.76,143.52-29c43.91-18.57,83.33-45.14,117.16-78.97,33.83-33.83,60.4-73.25,78.97-117.16,19.24-45.5,29-93.79,29-143.52s-9.76-98.02-29-143.52c-18.57-43.91-45.14-83.33-78.97-117.16-33.83-33.83-73.25-60.4-117.16-78.97-45.5-19.24-93.79-29-143.52-29h0Z" />
  <path class="cls-2" d="M2282.9,1008.49l-590.61-340.99c-17.48-10.09-39.02-10.09-56.5,0l-590.6,340.99c-17.48,10.09-28.25,28.75-28.25,48.93v681.97c0,20.19,10.77,38.84,28.25,48.93l590.61,340.99c17.48,10.09,39.02,10.09,56.5,0l590.6-340.99c17.48-10.09,28.25-28.75,28.25-48.93v-681.97c0-20.19-10.77-38.84-28.25-48.93ZM1664.05,1766.84c-203.48,0-368.43-164.95-368.43-368.43s164.95-368.43,368.43-368.43,368.43,164.95,368.43,368.43-164.95,368.43-368.43,368.43Z" />
  <path class="cls-1" d="M1549.5,26.31l-1017.07,587.21c-25.11,14.5-25.11,50.74,0,65.24l406.84,234.89c11.65,6.73,26.01,6.73,37.67,0l610.23-352.32c11.65-6.73,18.83-19.16,18.83-32.62V58.93c0-29-31.39-47.12-56.5-32.62Z" />
  <path class="cls-2" d="M2834.26,635.8L1778.6,26.32c-25.11-14.5-56.5,3.62-56.5,32.62v458.9c0,20.19,10.77,38.84,28.25,48.93l648.82,374.6c17.48,10.09,28.25,28.75,28.25,48.93v816.23c0,20.19-10.77,38.84-28.25,48.93l-706.87,408.11c-17.48,10.09-39.02,10.09-56.5,0l-706.87-408.11c-17.48-10.09-28.25-28.75-28.25-48.93v-748.48c0-20.19-10.77-38.84-28.25-48.93l-397.42-229.45c-25.11-14.5-56.5,3.62-56.5,32.62v1218.25c0,53.83,28.72,103.57,75.34,130.49l1094.88,632.12c46.62,26.91,104.05,26.91,150.67,0l1094.87-632.13c46.62-26.91,75.34-76.66,75.34-130.49V766.28c0-53.83-28.72-103.57-75.34-130.49Z" />
  <path class="cls-2" d="M3400.07,753.77c0-37.57,30.46-68.03,68.03-68.03h413.67c116.65,0,227.47,13.04,332.47,39.11s196.6,68.24,274.81,126.55c78.21,58.33,140.33,134.11,186.31,227.4,45.98,93.29,68.96,206.47,68.96,339.54,0,117.99-22.32,221.92-66.91,311.76-44.61,89.87-104.65,165.31-180.13,226.36-75.49,61.05-162.63,107.38-261.42,138.92-98.82,31.54-202.43,47.32-310.85,47.32h-456.92c-37.57,0-68.03-30.46-68.03-68.03V753.77ZM3720.66,1806.22c0,21.92,17.77,39.69,39.69,39.69h127.23c74.2,0,143.23-7.54,207.11-22.62,63.88-15.08,119.18-40.07,165.9-75.01,46.72-34.94,83.47-80.84,110.25-137.73,26.78-56.89,40.2-126.42,40.2-208.65,0-71.27-13.42-133.27-40.2-186.04-26.78-52.77-62.86-96.27-108.19-130.54-45.33-34.27-98.57-59.96-159.7-77.1-61.15-17.11-125.38-25.69-192.68-25.69h-149.92c-21.92,0-39.69,17.77-39.69,39.69v784.01Z" />
  <path class="cls-2" d="M4912.46,828.58c0-49.47,17.51-91.73,52.55-126.77,35.04-35.04,77.3-52.57,126.79-52.57s91.73,17.53,126.77,52.57c35.04,35.04,52.57,77.3,52.57,126.77s-17.53,91.75-52.57,126.79c-35.04,35.04-77.3,52.55-126.77,52.55s-91.75-17.51-126.79-52.55c-35.04-35.04-52.55-77.3-52.55-126.79ZM4988.88,1142.82h205.85c28.18,0,51.02,22.84,51.02,51.02v897.82c0,28.18-22.84,51.02-51.02,51.02h-205.85c-28.18,0-51.02-22.84-51.02-51.02v-897.82c0-28.18,22.84-51.02,51.02-51.02Z" />
  <path class="cls-2" d="M6525.93,2058.22c0,189.26-47.64,332.92-142.86,430.97-95.25,98.05-240.17,147.08-434.79,147.08-89.08,0-176.79-9.94-263.13-29.81-70.32-16.2-136.08-44.88-197.29-86.06-23.35-15.71-29.6-47.36-13.94-70.75l113.32-169.27c15.99-23.88,48.49-29.67,71.91-13.02,35.26,25.05,71.74,45.9,109.45,62.55,52.8,23.31,110.75,34.97,173.84,34.97,94.61,0,164.19-22.96,208.75-68.82,44.56-45.9,66.86-104.48,66.86-175.7v-93.8c0-1.53-1.24-2.77-2.77-2.77h0c-.85,0-1.65.4-2.16,1.09-35.52,47.41-79.49,80.97-131.89,100.69-52.82,19.86-102.54,29.81-149.16,29.81-74.07,0-141.28-12.7-201.63-38.04-60.36-25.34-112.11-61-155.31-106.93-43.2-45.93-76.48-100.41-99.79-163.47-23.31-63.04-34.97-132.27-34.97-207.69,0-65.79,10.61-130.22,31.89-193.28,21.25-63.06,51.43-118.59,90.51-166.57,39.08-47.96,86.72-86.69,142.96-116.18,56.24-29.46,120-44.22,191.32-44.22,43.89,0,83.99,4.81,120.35,14.41,36.35,9.6,68.91,21.92,97.73,37,28.79,15.08,53.47,31.87,74.05,50.37,20.12,18.1,36.31,35.9,48.57,53.33.51.72,1.33,1.15,2.21,1.15h0c1.5,0,2.71-1.21,2.71-2.71v-90.05c0-21.92,17.77-39.69,39.69-39.69h192.56c28.18,0,51.02,22.84,51.02,51.02v864.38ZM5748.26,1637.2c0,32.91,6.15,64.1,18.5,93.59,12.35,29.49,29.83,55.52,52.45,78.14s48.68,40.79,78.16,54.51c29.46,13.71,62.05,20.56,97.71,20.56s66.51-6.84,96.66-20.56c30.15-13.71,56.56-31.89,79.18-54.51s40.1-48.65,52.45-78.14,18.52-60.68,18.52-93.59-6.17-64.08-18.52-93.56-29.83-55.55-52.45-78.16c-22.62-22.62-49.03-40.77-79.18-54.48-30.15-13.71-62.39-20.58-96.66-20.58s-68.24,6.87-97.71,20.58c-29.49,13.71-55.55,31.87-78.16,54.48-22.62,22.62-40.1,48.68-52.45,78.16-12.35,29.49-18.5,60.68-18.5,93.56Z" />
  <path class="cls-2" d="M6718.36,828.58c0-49.47,17.51-91.73,52.55-126.77,35.04-35.04,77.3-52.57,126.79-52.57s91.73,17.53,126.77,52.57,52.57,77.3,52.57,126.77-17.53,91.75-52.57,126.79c-35.04,35.04-77.3,52.55-126.77,52.55s-91.75-17.51-126.79-52.55c-35.04-35.04-52.55-77.3-52.55-126.79ZM6794.77,1142.82h205.85c28.18,0,51.02,22.84,51.02,51.02v897.82c0,28.18-22.84,51.02-51.02,51.02h-205.85c-28.18,0-51.02-22.84-51.02-51.02v-897.82c0-28.18,22.84-51.02,51.02-51.02Z" />
  <path class="cls-2" d="M7983.24,1427.87c-18.29,19.21-48.14,21.08-68.91,4.59-9.44-7.5-20-14.31-31.67-20.45-27.43-14.38-56.91-21.6-88.43-21.6-78.16,0-138.85,23.34-182.04,69.98s-64.8,107.7-64.8,183.16,21.6,136.54,64.8,183.18,103.88,69.96,182.04,69.96c34.27,0,63.73-7.54,88.43-22.62,10.7-6.54,20.75-13.59,30.17-21.16,20.63-16.6,50.56-14.52,68.82,4.65l132.29,138.94c20.7,21.74,18.35,56.69-5.28,75.2-38.25,29.96-81.02,52.15-128.29,66.57-65.15,19.86-127.19,29.81-186.14,29.81-76.8,0-149.11-12.35-216.94-37.02-67.85-24.67-126.74-59.99-176.69-105.94-49.94-45.93-89.3-101.13-118.01-165.58-28.74-64.45-43.1-136.44-43.1-215.99s14.36-151.52,43.1-215.97c28.72-64.45,68.07-119.65,118.01-165.6,49.94-45.93,108.84-81.24,176.69-105.94,67.82-24.67,140.13-37.02,216.94-37.02,58.95,0,120.99,9.94,186.14,29.81,47.27,14.44,90.03,36.62,128.28,66.57,23.64,18.51,25.99,53.46,5.29,75.2l-130.7,137.27Z" />
  <path class="cls-2" d="M8224.55,1643.55c0-79.53,14.41-151.52,43.25-215.97,28.84-64.45,68.32-119.65,118.46-165.6,50.14-45.93,109.19-81.24,177.18-105.94,68-24.67,140.46-37.02,217.38-37.02s149.36,12.35,217.36,37.02c68,24.7,127.04,60.01,177.18,105.94,50.14,45.95,89.62,101.15,118.46,165.6,28.84,64.45,43.27,136.44,43.27,215.97s-14.43,151.54-43.27,215.99c-28.84,64.45-68.32,119.65-118.46,165.58-50.14,45.95-109.19,81.26-177.18,105.94-68,24.67-140.43,37.02-217.36,37.02s-149.38-12.35-217.38-37.02c-68-24.67-127.04-59.99-177.18-105.94-50.14-45.93-89.62-101.13-118.46-165.58-28.84-64.45-43.25-136.44-43.25-215.99ZM8532.44,1643.55c0,75.49,21.72,136.54,65.19,183.18,43.45,46.65,104.52,69.96,183.18,69.96s139.71-23.31,183.18-69.96c43.45-46.65,65.19-107.7,65.19-183.18s-21.75-136.51-65.19-183.16c-43.47-46.65-104.52-69.98-183.18-69.98s-139.74,23.34-183.18,69.98c-43.47,46.65-65.19,107.7-65.19,183.16Z" />
  <path class="cls-2" d="M9566.18,1142.82h212.37c23.48,0,42.52,19.04,42.52,42.52v116.74c0,1.09.89,1.98,1.98,1.98h.96c.73,0,1.4-.4,1.74-1.04,32.77-61.15,71.66-107.05,116.66-137.73,45.23-30.85,102.14-46.27,170.74-46.27,17.81,0,35.64.64,53.47,1.91.18.01.36.03.53.04,27.58,2.04,48.84,25.18,48.84,52.84v169.94c0,32.78-29.46,57.73-61.78,52.29-1.01-.17-2.01-.33-3.01-.5-21.25-3.42-43.55-5.13-66.86-5.13-58.97,0-105.59,8.23-139.86,24.67-34.27,16.44-60.68,39.38-79.18,68.84-18.52,29.46-30.53,64.75-36.01,105.86-5.48,41.12-8.21,86.32-8.21,135.65v364.25c0,29.27-23.73,53-53,53h-201.89c-29.27,0-53-23.73-53-53v-893.86c0-29.27,23.73-53,53-53Z" />
  <path class="cls-2" d="M11239.74,1937.32c25.09,18.41,28.09,54.9,6.15,76.97-42.06,42.3-91.52,76.41-148.39,102.29-75.44,34.32-153.58,51.51-234.47,51.51s-149.11-12.35-216.94-37.02c-67.85-24.67-126.74-59.99-176.69-105.94-49.94-45.93-89.3-101.13-118.01-165.58-28.74-64.45-43.1-136.44-43.1-215.99s14.41-151.52,43.22-215.97c28.82-64.45,68.29-119.65,118.39-165.6,50.09-45.93,109.09-81.24,177.03-105.94,67.95-24.67,140.33-37.02,217.21-37.02,71.37,0,136.22,12.35,194.54,37,58.33,24.65,107.75,59.94,148.24,105.81,40.47,45.9,71.69,101.05,93.66,165.43s32.96,136.29,32.96,215.74v45.54c0,28.18-22.84,51.02-51.02,51.02h-666.34c12.35,59.07,39.08,106.09,80.22,141.1,41.14,35.02,91.88,52.52,152.21,52.52,50.74,0,93.59-11.31,128.55-33.92,22.82-14.76,43.73-32.3,62.75-52.62,17.69-18.9,46.66-21.7,67.53-6.38l132.28,97.06ZM10995.9,1530.07c17.15,0,30.38-15.12,28.1-32.11-5.15-38.44-21.83-72.22-50.06-101.32-35.86-36.95-82.03-55.42-138.55-55.42-34.47,0-64.82,5.48-91.01,16.44-26.19,10.96-48.6,24.97-67.2,42.08-18.62,17.11-33.11,36.95-43.45,59.52-5.36,11.7-9.51,23.67-12.45,35.92-4.28,17.8,9.28,34.91,27.58,34.91h347.03Z" />
</svg>
